<svg xmlns="http://www.w3.org/2000/svg" width="32" height="32" viewBox="0 0 32 32" fill="none">
  <g clip-path="url(#clip0_1747_8387)">
    <path d="M16.0001 2.66699C8.64008 2.66699 2.66675 8.64033 2.66675 16.0003C2.66675 23.3603 8.64008 29.3337 16.0001 29.3337C23.3601 29.3337 29.3334 23.3603 29.3334 16.0003C29.3334 8.64033 23.3601 2.66699 16.0001 2.66699ZM16.0001 8.00033C18.5734 8.00033 20.6667 10.0937 20.6667 12.667C20.6667 15.2403 18.5734 17.3337 16.0001 17.3337C13.4267 17.3337 11.3334 15.2403 11.3334 12.667C11.3334 10.0937 13.4267 8.00033 16.0001 8.00033ZM16.0001 26.667C13.2934 26.667 10.0934 25.5737 7.81341 22.827C10.0667 21.067 12.9067 20.0003 16.0001 20.0003C19.0934 20.0003 21.9334 21.067 24.1867 22.827C21.9067 25.5737 18.7067 26.667 16.0001 26.667Z" fill="white" fill-opacity="0.6"/>
  </g>
  <defs>
    <clipPath id="clip0_1747_8387">
      <rect width="32" height="32" fill="white"/>
    </clipPath>
  </defs>
</svg>