<svg xmlns="http://www.w3.org/2000/svg" width="23" height="22" viewBox="0 0 23 22" fill="none">
<path fill-rule="evenodd" clip-rule="evenodd" d="M8.47156 8.43297V7.27797H8.87406C12.2282 7.14963 14.3749 9.97297 14.3749 9.97297C14.3749 9.97297 12.0941 13.053 9.54488 13.053C9.14238 13.053 8.87406 13.053 8.60574 12.9246V9.45963C9.94742 9.58797 10.0816 10.1013 10.8866 11.3846L12.6307 9.97297C12.6307 9.97297 11.4232 8.43297 9.27656 8.43297H8.47156ZM8.47156 6.25135H8.87406C13.4357 6.12301 16.3874 9.973 16.3874 9.973C16.3874 9.973 12.8991 13.9513 9.41077 13.9513C9.14242 13.9513 8.73995 13.9513 8.47159 13.823V14.8496H9.27659C12.6308 14.8496 15.0458 13.1813 17.3266 11.2563C17.7291 11.513 19.3391 12.283 19.6074 12.5397C17.4607 14.3363 12.2282 15.748 9.27659 15.748H8.47159V17.4163H21.0833V4.58301H8.47159L8.47156 6.25135ZM8.47156 12.9247V13.823C5.38575 13.3097 4.58075 10.2297 4.58075 10.2297C4.58075 10.2297 6.05657 8.68966 8.47156 8.433V9.45966C7.12989 9.33131 6.19074 10.4863 6.19074 10.4863C6.19074 10.4863 6.72742 12.4113 8.47156 12.9247ZM2.97075 10.1013C2.97075 10.1013 4.84907 7.53466 8.47156 7.278V6.37966C4.44657 6.63635 0.958252 9.973 0.958252 9.973C0.958252 9.973 2.97075 15.4913 8.47156 15.8763V14.8497C4.44657 14.4647 2.97075 10.1013 2.97075 10.1013Z" fill="#76B900"/>
</svg>