<svg fill="none" viewBox="0 0 16 16" xmlns="http://www.w3.org/2000/svg"><path fill="currentColor" fill-rule="evenodd" d="M6.817 2.117a6.027 6.027 0 0 1 2.366 0l.372.074.125 1.633c.396.16.765.374 1.095.633l1.477-.707.25.284a5.994 5.994 0 0 1 1.185 2.05l.121.358-1.352.926a4.536 4.536 0 0 1 0 1.264l1.352.926-.12.359a5.997 5.997 0 0 1-1.186 2.05l-.25.283-1.477-.707c-.33.259-.699.473-1.095.633l-.125 1.633-.372.074a6.021 6.021 0 0 1-2.366 0l-.372-.074-.125-1.633a4.498 4.498 0 0 1-1.095-.633l-1.477.707-.25-.284a5.995 5.995 0 0 1-1.185-2.05l-.121-.358 1.352-.926a4.535 4.535 0 0 1 0-1.264l-1.352-.926.12-.359a5.994 5.994 0 0 1 1.186-2.05l.25-.283 1.477.707c.33-.259.699-.473 1.095-.633l.125-1.633.372-.074ZM8 10a2 2 0 1 0 0-4 2 2 0 0 0 0 4Z" clip-rule="evenodd"/></svg>